<svg style="width: 100%; height: 100%" viewBox="0 0 64 64" fill="currentColor" xmlns="http://www.w3.org/2000/svg">
<g clip-path="url(#clip0_162_293)">
<path d="M29.5615 0.616825C30.9993 -0.489033 33.0007 -0.488996 34.4385 0.616825L61.3887 21.3473C62.373 22.1045 62.9502 23.2763 62.9502 24.5182V60.2125C62.9501 62.4216 61.1593 64.2125 58.9502 64.2125H18.3105L25.3701 46.984L33.3613 51.1696C35.6696 52.3787 38.522 51.5079 39.7607 49.2155L54.6035 26.7897C55.7136 25.1287 53.8837 24.4079 51.9678 23.1276C50.0517 21.8471 47.9604 19.4866 46.5635 21.9166L33.6162 40.5524L25.2822 36.1862C24.1149 35.5747 22.745 35.4742 21.501 35.9088C20.3349 36.3163 19.3764 37.1606 18.8223 38.2574L18.7168 38.4801L7.59668 64.2125H5.0498C2.84073 64.2125 1.04991 62.4216 1.0498 60.2125V24.5182C1.0498 23.2763 1.62699 22.1045 2.61133 21.3473L29.5615 0.616825Z"/>
</g>
<defs>
<clipPath id="clip0_162_293">
<rect width="100%" height="100%" />
</clipPath>
</defs>
</svg>
